<?xml version="1.0" encoding="utf-8"?>
<!-- Generator: Adobe Illustrator 23.0.0, SVG Export Plug-In . SVG Version: 6.00 Build 0)  -->
<svg version="1.2" baseProfile="tiny" id="g-mygraph-phone-img"
	 xmlns="http://www.w3.org/2000/svg" xmlns:xlink="http://www.w3.org/1999/xlink" x="0px" y="0px" viewBox="0 0 320 884.527"
	 xml:space="preserve">
<g>
	<line fill="none" stroke="#000000" stroke-width="0.75" stroke-miterlimit="10" x1="15.447" y1="102.26" x2="304.21" y2="102.26"/>
	
		<line fill="none" stroke="#000000" stroke-width="0.75" stroke-miterlimit="10" x1="15.447" y1="199.641" x2="304.21" y2="199.641"/>
	<line fill="none" stroke="#000000" stroke-width="0.75" stroke-miterlimit="10" x1="15.447" y1="14.929" x2="304.21" y2="14.929"/>
	<path fill="#2EA736" stroke="#FFFFFF" stroke-width="0.5" d="M71.089,706.921l3.919,15.992L71.089,706.921
		c-1.94,0.478-3.857,1.052-5.74,1.735l5.618,15.483c3.818-1.385,7.826-2.178,11.883-2.349l-0.696-16.456
		C78.418,705.492,74.712,706.029,71.089,706.921z"/>
	<path style="opacity:0.3;" fill-rule="evenodd" fill="#009FE3" stroke="#FFFFFF" stroke-width="0.5" d="M38.513,793.837
		c-11.198-15.944-13.345-36.549-5.674-54.459l15.14,6.485c-5.424,12.664-3.906,27.234,4.012,38.508L38.513,793.837z"/>
	<path fill-rule="evenodd" fill="#F8D000" stroke="#FFFFFF" stroke-width="0.5" d="M32.84,739.378c0.936-2.186,2.01-4.31,3.215-6.36
		l14.199,8.347c-0.852,1.449-1.611,2.951-2.273,4.497L32.84,739.378z"/>
	<path fill-rule="evenodd" fill="#F8D000" stroke="#FFFFFF" stroke-width="0.5" d="M36.055,733.018
		c2.081-3.539,4.543-6.84,7.342-9.843l12.048,11.23c-1.979,2.124-3.72,4.458-5.192,6.96L36.055,733.018z"/>
	<path fill-rule="evenodd" fill="#F8D000" stroke="#FFFFFF" stroke-width="0.5" d="M43.396,723.175
		c0.795-0.852,1.615-1.68,2.461-2.481l11.327,11.957c-0.598,0.567-1.179,1.152-1.74,1.755L43.396,723.175z"/>
	<path fill-rule="evenodd" fill="#951B81" stroke="#FFFFFF" stroke-width="0.5" d="M45.858,720.694
		c5.602-5.307,12.237-9.405,19.492-12.037l5.618,15.483c-5.13,1.861-9.821,4.759-13.783,8.512L45.858,720.694z"/>
	<path style="opacity:0.3;" fill-rule="evenodd" fill="#009FE3" stroke="#FFFFFF" stroke-width="0.5" d="M28.171,801.101
		c-13.715-19.528-16.344-44.763-6.949-66.699l11.617,4.976c-7.671,17.91-5.524,38.515,5.674,54.459L28.171,801.101z"/>
	<path fill-rule="evenodd" fill="#F8D000" stroke="#FFFFFF" stroke-width="0.5" d="M21.222,734.402
		c1.147-2.677,2.462-5.278,3.938-7.789l10.895,6.405c-1.205,2.05-2.279,4.174-3.215,6.36L21.222,734.402z"/>
	<path fill-rule="evenodd" fill="#F8D000" stroke="#FFFFFF" stroke-width="0.5" d="M25.16,726.613
		c2.548-4.335,5.564-8.377,8.992-12.055l9.245,8.617c-2.799,3.003-5.261,6.304-7.342,9.843L25.16,726.613z"/>
	<path fill-rule="evenodd" fill="#F8D000" stroke="#FFFFFF" stroke-width="0.5" d="M34.152,714.558
		c0.973-1.044,1.978-2.057,3.014-3.039l8.692,9.175c-0.846,0.801-1.667,1.629-2.461,2.481L34.152,714.558z"/>
	<path fill-rule="evenodd" fill="#951B81" stroke="#FFFFFF" stroke-width="0.5" d="M37.166,711.519
		c6.862-6.5,14.988-11.518,23.872-14.742l4.311,11.88c-7.254,2.632-13.889,6.73-19.492,12.037L37.166,711.519z"/>
	<path fill-rule="evenodd" fill="#2EA736" stroke="#FFFFFF" stroke-width="0.5" d="M81.621,692.707
		c-4.566,0.193-9.102,0.84-13.54,1.932c-2.384,0.586-4.735,1.3-7.043,2.137l4.311,11.88c1.884-0.684,3.804-1.266,5.75-1.745
		c3.624-0.891,7.327-1.42,11.055-1.577L81.621,692.707z"/>
	<g style="opacity:0.3;">
		<path fill="#E6007E" stroke="#FFFFFF" stroke-width="0.5" d="M51.992,784.371l-13.478,9.466c0.851,1.212,1.746,2.384,2.683,3.517
			l12.92-10.228C53.372,786.242,52.661,785.324,51.992,784.371z"/>
		<path fill="#E6007E" stroke="#FFFFFF" stroke-width="0.5" d="M79.65,800.98c-9.996-1.236-19.102-6.214-25.534-13.854
			l-12.92,10.228c3.127,3.782,6.715,7.111,10.656,9.926l9.518-13.442l-9.518,13.442c7.543,5.386,16.382,8.884,25.776,10.046
			L79.65,800.98z"/>
		<path fill="#009FE3" stroke="#FFFFFF" stroke-width="0.5" d="M118.809,741.365l14.264-8.223
			c-9.689-16.584-27.323-27.251-46.864-27.834l-0.491,16.463c15.58,0.465,29.451,9.99,35.481,24.363l15.188-6.372
			c-0.965-2.299-2.078-4.506-3.314-6.621L118.809,741.365z"/>
		<path fill-rule="evenodd" fill="#009FE3" stroke="#FFFFFF" stroke-width="0.5" d="M84.531,705.284
			c0.559,0,1.119,0.008,1.678,0.025l-0.491,16.463c-0.395-0.012-0.791-0.018-1.186-0.018V705.284z"/>
		<path fill-rule="evenodd" fill="#F8D000" stroke="#FFFFFF" stroke-width="0.5" d="M136.387,739.764
			c4.636,11.052,5.62,23.297,2.808,34.947l-16.011-3.864c1.988-8.238,1.293-16.896-1.986-24.711L136.387,739.764z"/>
		<path fill-rule="evenodd" fill="#F8D000" stroke="#FFFFFF" stroke-width="0.5" d="M139.195,774.711
			c-0.35,1.45-0.757,2.885-1.222,4.303l-15.653-5.125c0.328-1.002,0.616-2.017,0.864-3.043L139.195,774.711z"/>
		<path fill-rule="evenodd" fill="#009FE3" stroke="#FFFFFF" stroke-width="0.5" d="M137.974,779.014
			c-8.367,25.557-33.658,41.613-60.346,38.311l2.022-16.346c18.871,2.334,36.755-9.019,42.671-27.09L137.974,779.014z"/>
		<path fill-rule="evenodd" fill="#F39200" stroke="#FFFFFF" stroke-width="0.5" d="M82.155,705.334
			c0.792-0.034,1.584-0.05,2.376-0.05v16.47c-0.56,0-1.12,0.012-1.68,0.035L82.155,705.334z"/>
		<path fill-rule="evenodd" fill="#009FE3" stroke="#FFFFFF" stroke-width="0.5" d="M84.531,692.646c0.685,0,1.37,0.01,2.055,0.031
			l-0.377,12.633c-0.559-0.017-1.118-0.025-1.678-0.025V692.646z"/>
		<path fill-rule="evenodd" fill="#009FE3" stroke="#FFFFFF" stroke-width="0.5" d="M143.99,726.761
			c-11.981-20.496-33.673-33.376-57.404-34.084l-0.377,12.633c19.376,0.578,37.087,11.095,46.87,27.83
			c1.247,2.133,2.352,4.346,3.308,6.625l11.654-4.889C146.87,732.084,145.517,729.374,143.99,726.761z"/>
		<path fill-rule="evenodd" fill="#F8D000" stroke="#FFFFFF" stroke-width="0.5" d="M148.041,734.875
			c5.678,13.536,6.884,28.532,3.439,42.802l-12.285-2.965c2.812-11.651,1.828-23.895-2.808-34.947L148.041,734.875z"/>
		<path fill-rule="evenodd" fill="#F8D000" stroke="#FFFFFF" stroke-width="0.5" d="M151.481,777.677
			c-0.429,1.776-0.928,3.534-1.496,5.27l-12.011-3.932c0.464-1.418,0.872-2.853,1.222-4.303L151.481,777.677z"/>
		<path fill-rule="evenodd" fill="#009FE3" stroke="#FFFFFF" stroke-width="0.5" d="M137.974,779.014
			c-8.285,25.307-33.185,41.333-59.652,38.393c-0.232-0.026-0.463-0.053-0.694-0.081l-1.552,12.543
			c0.283,0.035,0.567,0.068,0.85,0.1c32.414,3.601,62.91-16.027,73.058-47.022L137.974,779.014z"/>
		<path fill-rule="evenodd" fill="#E6007E" stroke="#FFFFFF" stroke-width="0.5" d="M51.841,807.273
			c-3.988-2.849-7.585-6.207-10.703-9.988c-0.919-1.115-1.795-2.265-2.625-3.448l-10.342,7.264c1.017,1.448,2.09,2.857,3.215,4.222
			c3.818,4.632,8.224,8.744,13.108,12.233c9.337,6.671,20.193,10.903,31.582,12.312l1.552-12.543
			C68.329,816.175,59.465,812.72,51.841,807.273z"/>
		<path fill-rule="evenodd" fill="#F39200" stroke="#FFFFFF" stroke-width="0.5" d="M81.621,692.707
			c0.97-0.041,1.94-0.062,2.91-0.062v12.638c-0.792,0-1.585,0.017-2.376,0.05L81.621,692.707z"/>
	</g>
	<path fill="#009FE3" stroke="#FFFFFF" stroke-width="0.5" d="M123.498,286.097l15.05-8.676
		c-10.224-17.499-28.83-28.753-49.449-29.369l-0.518,17.371c16.439,0.491,31.076,10.541,37.438,25.707l16.026-6.723
		c-1.018-2.426-2.193-4.754-3.497-6.986L123.498,286.097z"/>
	<path fill-rule="evenodd" fill="#009FE3" stroke="#FFFFFF" stroke-width="0.5" d="M87.33,248.026c0.59,0,1.18,0.009,1.77,0.026
		l-0.518,17.371c-0.417-0.012-0.834-0.019-1.252-0.019V248.026z"/>
	<path fill-rule="evenodd" fill="#F8D000" stroke="#FFFFFF" stroke-width="0.5" d="M142.045,284.407
		c4.892,11.662,5.93,24.581,2.963,36.875l-16.894-4.077c2.098-8.693,1.364-17.828-2.095-26.074L142.045,284.407z"/>
	<path style="opacity:0.3;" fill-rule="evenodd" fill="#F8D000" stroke="#FFFFFF" stroke-width="0.5" d="M145.008,321.282
		c-0.369,1.53-0.799,3.045-1.289,4.54l-16.516-5.407c0.346-1.058,0.65-2.129,0.911-3.211L145.008,321.282z"/>
	<path fill-rule="evenodd" fill="#F39200" stroke="#FFFFFF" stroke-width="0.5" d="M84.822,248.079
		c0.835-0.035,1.671-0.053,2.507-0.053v17.379c-0.591,0-1.182,0.012-1.773,0.037L84.822,248.079z"/>
	<path fill-rule="evenodd" fill="#009FE3" stroke="#FFFFFF" stroke-width="0.5" d="M87.33,234.69c0.723,0,1.446,0.011,2.168,0.032
		L89.1,248.052c-0.59-0.018-1.18-0.026-1.77-0.026V234.69z"/>
	<path fill-rule="evenodd" fill="#009FE3" stroke="#FFFFFF" stroke-width="0.5" d="M150.067,270.687
		c-12.642-21.626-35.531-35.217-60.57-35.964L89.1,248.052c20.444,0.61,39.133,11.707,49.455,29.365
		c1.316,2.251,2.482,4.586,3.49,6.991l12.297-5.159C153.107,276.304,151.679,273.444,150.067,270.687z"/>
	<path fill-rule="evenodd" fill="#F8D000" stroke="#FFFFFF" stroke-width="0.5" d="M154.342,279.249
		c5.992,14.283,7.263,30.106,3.629,45.162l-12.963-3.129c2.967-12.293,1.929-25.213-2.963-36.875L154.342,279.249z"/>
	<path style="opacity:0.3;" fill-rule="evenodd" fill="#F8D000" stroke="#FFFFFF" stroke-width="0.5" d="M157.971,324.411
		c-0.452,1.874-0.979,3.729-1.579,5.561l-12.673-4.149c0.49-1.496,0.92-3.01,1.289-4.54L157.971,324.411z"/>
	<path fill-rule="evenodd" fill="#F39200" stroke="#FFFFFF" stroke-width="0.5" d="M84.259,234.755
		c1.023-0.043,2.047-0.065,3.071-0.065v13.335c-0.836,0-1.672,0.018-2.507,0.053L84.259,234.755z"/>
	<g style="opacity:0.3;">
		<path fill="#E6007E" stroke="#FFFFFF" stroke-width="0.5" d="M52.995,331.474l-14.222,9.988c0.898,1.279,1.843,2.516,2.831,3.711
			l13.632-10.792C54.451,333.449,53.702,332.481,52.995,331.474z"/>
		<path fill="#E6007E" stroke="#FFFFFF" stroke-width="0.5" d="M82.179,349c-10.547-1.305-20.156-6.557-26.942-14.618
			l-13.632,10.792c3.3,3.991,7.085,7.504,11.243,10.473l10.042-14.184l-10.042,14.184c7.959,5.683,17.286,9.374,27.198,10.6
			L82.179,349z"/>
		<path fill="#2EA736" stroke="#FFFFFF" stroke-width="0.5" d="M73.146,249.753l4.135,16.874L73.146,249.753
			c-2.047,0.504-4.069,1.11-6.056,1.831l5.928,16.337c4.028-1.462,8.257-2.298,12.539-2.479l-0.734-17.363
			C80.879,248.245,76.969,248.812,73.146,249.753z"/>
		<path fill-rule="evenodd" fill="#009FE3" stroke="#FFFFFF" stroke-width="0.5" d="M143.719,325.823
			c-8.829,26.966-35.514,43.908-63.674,40.424L82.179,349c19.912,2.463,38.782-9.516,45.024-28.584L143.719,325.823z"/>
		<path fill-rule="evenodd" fill="#009FE3" stroke="#FFFFFF" stroke-width="0.5" d="M38.774,341.463
			C26.958,324.639,24.693,302.898,32.787,284l15.975,6.842c-5.723,13.363-4.122,28.736,4.233,40.632L38.774,341.463z"/>
		<path fill-rule="evenodd" fill="#F8D000" stroke="#FFFFFF" stroke-width="0.5" d="M32.787,284c0.988-2.306,2.121-4.548,3.392-6.71
			l14.982,8.808c-0.899,1.529-1.7,3.114-2.399,4.745L32.787,284z"/>
		<path fill-rule="evenodd" fill="#F8D000" stroke="#FFFFFF" stroke-width="0.5" d="M36.179,277.29
			c2.195-3.734,4.793-7.217,7.747-10.386l12.713,11.85c-2.089,2.241-3.925,4.703-5.478,7.344L36.179,277.29z"/>
		<path fill-rule="evenodd" fill="#F8D000" stroke="#FFFFFF" stroke-width="0.5" d="M43.926,266.904
			c0.838-0.899,1.704-1.773,2.597-2.618l11.952,12.616c-0.631,0.598-1.244,1.215-1.836,1.851L43.926,266.904z"/>
		<path fill-rule="evenodd" fill="#951B81" stroke="#FFFFFF" stroke-width="0.5" d="M46.523,264.286
			c5.911-5.6,12.912-9.923,20.567-12.701l5.928,16.336c-5.413,1.964-10.363,5.021-14.543,8.981L46.523,264.286z"/>
		<path fill-rule="evenodd" fill="#009FE3" stroke="#FFFFFF" stroke-width="0.5" d="M143.719,325.823
			c-8.742,26.703-35.016,43.613-62.942,40.51c-0.244-0.027-0.489-0.056-0.733-0.086l-1.637,13.234
			c0.299,0.037,0.598,0.072,0.897,0.105c34.202,3.8,66.38-16.911,77.087-49.615L143.719,325.823z"/>
		<path fill-rule="evenodd" fill="#E6007E" stroke="#FFFFFF" stroke-width="0.5" d="M52.836,355.64
			c-4.207-3.006-8.004-6.549-11.293-10.539c-0.97-1.177-1.894-2.39-2.77-3.638l-10.913,7.664c1.073,1.528,2.205,3.014,3.393,4.455
			c4.028,4.887,8.678,9.226,13.831,12.908c9.852,7.039,21.307,11.505,33.324,12.991l1.637-13.234
			C70.234,365.033,60.881,361.387,52.836,355.64z"/>
		<path fill-rule="evenodd" fill="#009FE3" stroke="#FFFFFF" stroke-width="0.5" d="M27.861,349.127
			c-14.471-20.605-17.245-47.232-7.332-70.377L32.787,284c-8.094,18.898-5.829,40.639,5.987,57.463L27.861,349.127z"/>
		<path fill-rule="evenodd" fill="#F8D000" stroke="#FFFFFF" stroke-width="0.5" d="M20.529,278.75
			c1.21-2.825,2.597-5.57,4.155-8.218l11.496,6.758c-1.272,2.163-2.405,4.404-3.392,6.71L20.529,278.75z"/>
		<path fill-rule="evenodd" fill="#F8D000" stroke="#FFFFFF" stroke-width="0.5" d="M24.683,270.531
			c2.689-4.574,5.87-8.839,9.488-12.72l9.755,9.093c-2.954,3.169-5.551,6.652-7.747,10.386L24.683,270.531z"/>
		<path fill-rule="evenodd" fill="#F8D000" stroke="#FFFFFF" stroke-width="0.5" d="M34.171,257.811
			c1.027-1.102,2.088-2.171,3.181-3.207l9.171,9.681c-0.893,0.846-1.759,1.719-2.597,2.618L34.171,257.811z"/>
		<path fill-rule="evenodd" fill="#951B81" stroke="#FFFFFF" stroke-width="0.5" d="M37.352,254.605
			c7.24-6.859,15.814-12.154,25.189-15.556l4.549,12.535c-7.654,2.778-14.655,7.101-20.567,12.701L37.352,254.605z"/>
		<path fill-rule="evenodd" fill="#2EA736" stroke="#FFFFFF" stroke-width="0.5" d="M84.259,234.755
			c-4.818,0.204-9.604,0.887-14.287,2.038c-2.516,0.619-4.996,1.372-7.431,2.255l4.549,12.535c1.988-0.721,4.014-1.336,6.068-1.841
			c3.823-0.94,7.731-1.498,11.665-1.664L84.259,234.755z"/>
	</g>
	<path fill="#E6007E" stroke="#FFFFFF" stroke-width="0.5" d="M51.153,629.534L37.674,639c0.851,1.212,1.746,2.384,2.683,3.517
		l12.92-10.228C52.533,631.405,51.822,630.487,51.153,629.534z"/>
	<path fill="#E6007E" stroke="#FFFFFF" stroke-width="0.5" d="M78.811,646.143c-9.996-1.236-19.102-6.214-25.534-13.854
		l-12.92,10.228c3.127,3.782,6.715,7.111,10.656,9.926L60.53,639l-9.518,13.442c7.543,5.386,16.382,8.884,25.776,10.046
		L78.811,646.143z"/>
	<path fill-rule="evenodd" fill="#009FE3" stroke="#FFFFFF" stroke-width="0.5" d="M37.674,639
		c-11.198-15.944-13.345-36.549-5.674-54.459l15.14,6.485c-5.424,12.664-3.906,27.234,4.012,38.508L37.674,639z"/>
	<path fill-rule="evenodd" fill="#E6007E" stroke="#FFFFFF" stroke-width="0.5" d="M51.002,652.436
		c-3.988-2.849-7.585-6.207-10.703-9.988c-0.919-1.115-1.795-2.265-2.625-3.448l-10.342,7.264c1.017,1.448,2.09,2.857,3.215,4.222
		c3.818,4.632,8.224,8.744,13.108,12.233c9.337,6.671,20.193,10.903,31.582,12.312l1.552-12.543
		C67.49,661.338,58.626,657.883,51.002,652.436z"/>
	<path fill-rule="evenodd" fill="#009FE3" stroke="#FFFFFF" stroke-width="0.5" d="M27.332,646.264
		c-13.715-19.528-16.344-44.763-6.949-66.699l11.617,4.976c-7.671,17.91-5.524,38.515,5.674,54.459L27.332,646.264z"/>
	<g style="opacity:0.3;">
		<path fill="#2EA736" stroke="#FFFFFF" stroke-width="0.5" d="M70.25,552.084l3.919,15.992L70.25,552.084
			c-1.94,0.478-3.857,1.052-5.74,1.735l5.618,15.483c3.818-1.385,7.826-2.178,11.883-2.349l-0.696-16.456
			C77.579,550.655,73.873,551.192,70.25,552.084z"/>
		<path fill="#009FE3" stroke="#FFFFFF" stroke-width="0.5" d="M117.97,586.528l14.264-8.223
			c-9.689-16.584-27.323-27.251-46.864-27.834l-0.491,16.463c15.58,0.465,29.451,9.99,35.481,24.363l15.188-6.372
			c-0.965-2.299-2.078-4.506-3.314-6.621L117.97,586.528z"/>
		<path fill-rule="evenodd" fill="#009FE3" stroke="#FFFFFF" stroke-width="0.5" d="M83.692,550.447
			c0.559,0,1.119,0.008,1.678,0.025l-0.491,16.463c-0.395-0.012-0.791-0.018-1.186-0.018V550.447z"/>
		<path fill-rule="evenodd" fill="#F8D000" stroke="#FFFFFF" stroke-width="0.5" d="M135.548,584.927
			c4.636,11.052,5.62,23.297,2.808,34.947l-16.011-3.864c1.988-8.238,1.293-16.896-1.986-24.711L135.548,584.927z"/>
		<path fill-rule="evenodd" fill="#F8D000" stroke="#FFFFFF" stroke-width="0.5" d="M138.356,619.874
			c-0.35,1.45-0.757,2.885-1.222,4.303l-15.653-5.125c0.328-1.002,0.616-2.017,0.864-3.043L138.356,619.874z"/>
		<path fill-rule="evenodd" fill="#009FE3" stroke="#FFFFFF" stroke-width="0.5" d="M137.135,624.177
			c-8.367,25.557-33.658,41.613-60.346,38.311l2.022-16.346c18.871,2.334,36.755-9.019,42.671-27.09L137.135,624.177z"/>
		<path fill-rule="evenodd" fill="#F8D000" stroke="#FFFFFF" stroke-width="0.5" d="M32.001,584.541
			c0.936-2.186,2.01-4.31,3.215-6.36l14.199,8.347c-0.852,1.449-1.611,2.951-2.273,4.497L32.001,584.541z"/>
		<path fill-rule="evenodd" fill="#F8D000" stroke="#FFFFFF" stroke-width="0.5" d="M35.216,578.181
			c2.081-3.539,4.543-6.84,7.342-9.843l12.048,11.23c-1.979,2.124-3.72,4.458-5.192,6.96L35.216,578.181z"/>
		<path fill-rule="evenodd" fill="#F8D000" stroke="#FFFFFF" stroke-width="0.5" d="M42.558,568.338
			c0.795-0.852,1.615-1.68,2.461-2.481l11.327,11.957c-0.598,0.567-1.179,1.152-1.74,1.755L42.558,568.338z"/>
		<path fill-rule="evenodd" fill="#951B81" stroke="#FFFFFF" stroke-width="0.5" d="M45.019,565.857
			c5.602-5.307,12.237-9.405,19.492-12.037l5.618,15.483c-5.13,1.861-9.821,4.759-13.783,8.512L45.019,565.857z"/>
		<path fill-rule="evenodd" fill="#F39200" stroke="#FFFFFF" stroke-width="0.5" d="M81.316,550.497
			c0.792-0.034,1.584-0.05,2.376-0.05v16.47c-0.56,0-1.12,0.012-1.68,0.035L81.316,550.497z"/>
		<path fill-rule="evenodd" fill="#009FE3" stroke="#FFFFFF" stroke-width="0.5" d="M83.692,537.809c0.685,0,1.37,0.01,2.055,0.031
			l-0.377,12.633c-0.559-0.017-1.118-0.025-1.678-0.025V537.809z"/>
		<path fill-rule="evenodd" fill="#009FE3" stroke="#FFFFFF" stroke-width="0.5" d="M143.151,571.924
			c-11.981-20.496-33.673-33.376-57.404-34.084l-0.377,12.633c19.376,0.578,37.087,11.095,46.87,27.83
			c1.247,2.133,2.352,4.346,3.308,6.625l11.654-4.889C146.031,577.247,144.678,574.536,143.151,571.924z"/>
		<path fill-rule="evenodd" fill="#F8D000" stroke="#FFFFFF" stroke-width="0.5" d="M147.202,580.038
			c5.678,13.536,6.884,28.532,3.439,42.802l-12.285-2.965c2.812-11.651,1.828-23.895-2.808-34.947L147.202,580.038z"/>
		<path fill-rule="evenodd" fill="#F8D000" stroke="#FFFFFF" stroke-width="0.5" d="M150.642,622.839
			c-0.429,1.776-0.928,3.534-1.496,5.27l-12.011-3.932c0.464-1.418,0.872-2.853,1.222-4.303L150.642,622.839z"/>
		<path fill-rule="evenodd" fill="#009FE3" stroke="#FFFFFF" stroke-width="0.5" d="M137.135,624.177
			c-8.285,25.307-33.186,41.333-59.652,38.393c-0.232-0.026-0.463-0.053-0.694-0.081l-1.552,12.543
			c0.283,0.035,0.567,0.068,0.85,0.1c32.414,3.601,62.91-16.027,73.058-47.022L137.135,624.177z"/>
		<path fill-rule="evenodd" fill="#F8D000" stroke="#FFFFFF" stroke-width="0.5" d="M20.383,579.565
			c1.147-2.677,2.462-5.278,3.938-7.789l10.895,6.405c-1.205,2.05-2.279,4.174-3.215,6.36L20.383,579.565z"/>
		<path fill-rule="evenodd" fill="#F8D000" stroke="#FFFFFF" stroke-width="0.5" d="M24.321,571.776
			c2.548-4.335,5.564-8.377,8.992-12.055l9.245,8.617c-2.799,3.003-5.261,6.304-7.342,9.843L24.321,571.776z"/>
		<path fill-rule="evenodd" fill="#F8D000" stroke="#FFFFFF" stroke-width="0.5" d="M33.313,559.721
			c0.973-1.044,1.978-2.057,3.014-3.039l8.692,9.175c-0.846,0.801-1.667,1.629-2.461,2.481L33.313,559.721z"/>
		<path fill-rule="evenodd" fill="#951B81" stroke="#FFFFFF" stroke-width="0.5" d="M36.327,556.682
			c6.862-6.5,14.988-11.518,23.872-14.742l4.311,11.88c-7.254,2.632-13.889,6.73-19.492,12.037L36.327,556.682z"/>
		<path fill-rule="evenodd" fill="#2EA736" stroke="#FFFFFF" stroke-width="0.5" d="M80.782,537.87
			c-4.566,0.193-9.102,0.84-13.54,1.932c-2.384,0.586-4.735,1.3-7.043,2.137l4.311,11.88c1.884-0.684,3.804-1.266,5.75-1.745
			c3.624-0.891,7.327-1.42,11.055-1.577L80.782,537.87z"/>
		<path fill-rule="evenodd" fill="#F39200" stroke="#FFFFFF" stroke-width="0.5" d="M80.782,537.87
			c0.97-0.041,1.94-0.062,2.91-0.062v12.638c-0.792,0-1.585,0.017-2.376,0.05L80.782,537.87z"/>
	</g>
	<path fill-rule="evenodd" fill="#F8D000" stroke="#FFFFFF" stroke-width="0.5" d="M139.195,469.954
		c-0.35,1.45-0.757,2.885-1.222,4.303l-15.653-5.125c0.328-1.002,0.616-2.017,0.864-3.043L139.195,469.954z"/>
	<path fill-rule="evenodd" fill="#009FE3" stroke="#FFFFFF" stroke-width="0.5" d="M137.974,474.257
		c-8.367,25.557-33.658,41.613-60.346,38.311l2.022-16.346c18.871,2.334,36.755-9.019,42.671-27.09L137.974,474.257z"/>
	<path fill-rule="evenodd" fill="#F8D000" stroke="#FFFFFF" stroke-width="0.5" d="M151.481,472.919
		c-0.429,1.776-0.928,3.534-1.496,5.27l-12.011-3.932c0.464-1.418,0.872-2.853,1.222-4.303L151.481,472.919z"/>
	<path fill-rule="evenodd" fill="#009FE3" stroke="#FFFFFF" stroke-width="0.5" d="M137.974,474.257
		c-8.285,25.307-33.185,41.333-59.652,38.393c-0.232-0.026-0.463-0.053-0.694-0.081l-1.552,12.543c0.283,0.035,0.567,0.068,0.85,0.1
		c32.414,3.601,62.91-16.027,73.058-47.022L137.974,474.257z"/>
	<g>
		
		
		
		
		
		
		
		
		
		
		
		
		
		
		
		
		
		
		
		
		
		
		
	</g>
	<g>
		<polyline fill="none" stroke="#000000" stroke-width="0.25" stroke-miterlimit="10" points="122.756,501.584 191.755,513.954 
			228.44,513.954 		"/>
		<g>
			<path d="M122.637,502.518c-0.511-0.092-0.851-0.58-0.759-1.091c0.092-0.511,0.58-0.851,1.091-0.759
				c0.511,0.092,0.851,0.58,0.759,1.091C123.636,502.269,123.148,502.609,122.637,502.518z"/>
		</g>
	</g>
	<g>
		<polyline fill="none" stroke="#000000" stroke-width="0.25" stroke-miterlimit="10" points="53.786,660.946 180.207,646.264 
			206.527,646.264 		"/>
		<g>
			<path d="M53.941,661.875c-0.516,0.06-0.982-0.31-1.042-0.825c-0.06-0.516,0.31-0.982,0.825-1.042s0.982,0.31,1.042,0.825
				C54.826,661.348,54.457,661.815,53.941,661.875z"/>
		</g>
	</g>
	<g>
		
			<line fill="none" stroke="#000000" stroke-width="0.25" stroke-miterlimit="10" x1="239.893" y1="605.064" x2="22.115" y2="605.064"/>
		<g>
			<circle cx="22.162" cy="605.064" r="0.94"/>
		</g>
	</g>
	<g>
		<polyline fill="none" stroke="#000000" stroke-width="0.25" stroke-miterlimit="10" points="28.638,733.911 28.638,805.91 
			210.68,805.91 		"/>
		<g>
			<circle cx="28.638" cy="733.958" r="0.94"/>
		</g>
	</g>
	<g>
		<polyline fill="none" stroke="#000000" stroke-width="0.25" stroke-miterlimit="10" points="34.989,724.679 94.684,770.012 
			242.335,770.012 		"/>
		<g>
			<path d="M34.458,725.456c-0.414-0.314-0.494-0.904-0.18-1.317c0.314-0.413,0.904-0.494,1.317-0.18
				c0.414,0.314,0.494,0.904,0.18,1.317C35.461,725.69,34.872,725.77,34.458,725.456z"/>
		</g>
	</g>
	<g>
		<polyline fill="none" stroke="#000000" stroke-width="0.25" stroke-miterlimit="10" points="40.602,718.867 71.597,747.011 
			226.52,747.011 		"/>
		<g>
			<path d="M40.005,719.595c-0.384-0.349-0.413-0.943-0.064-1.328s0.944-0.413,1.328-0.064c0.384,0.349,0.413,0.943,0.064,1.328
				C40.983,719.915,40.389,719.944,40.005,719.595z"/>
		</g>
	</g>
	<g>
		<polyline fill="none" stroke="#000000" stroke-width="0.25" stroke-miterlimit="10" points="58.597,707.517 69.868,729.814 
			255.648,729.814 		"/>
		<g>
			<path d="M57.78,707.983c-0.234-0.463-0.048-1.029,0.415-1.263c0.463-0.234,1.029-0.048,1.263,0.415
				c0.234,0.463,0.048,1.029-0.415,1.263C58.579,708.632,58.014,708.446,57.78,707.983z"/>
		</g>
	</g>
	<g>
		<polyline fill="none" stroke="#000000" stroke-width="0.25" stroke-miterlimit="10" points="146.805,475.072 202.54,480.999 
			246.2,480.999 		"/>
		<g>
			<path d="M146.753,476.012c-0.516-0.055-0.89-0.518-0.835-1.034s0.518-0.89,1.034-0.835c0.516,0.055,0.89,0.518,0.835,1.034
				S147.269,476.067,146.753,476.012z"/>
		</g>
	</g>
	<g>
		
			<line fill="none" stroke="#000000" stroke-width="0.25" stroke-miterlimit="10" x1="157.286" y1="304.23" x2="225.08" y2="304.23"/>
		<g>
			<circle cx="157.333" cy="304.23" r="0.94"/>
		</g>
	</g>
	<g>
		<polyline fill="none" stroke="#000000" stroke-width="0.25" stroke-miterlimit="10" points="132.596,261.34 180.18,274.343 
			202.527,274.343 		"/>
		<g>
			<path d="M132.394,262.259c-0.501-0.137-0.796-0.654-0.659-1.154c0.137-0.501,0.654-0.796,1.154-0.659s0.796,0.654,0.659,1.154
				C133.412,262.101,132.895,262.396,132.394,262.259z"/>
		</g>
	</g>
	<g>
		
			<line fill="none" stroke="#000000" stroke-width="0.25" stroke-miterlimit="10" x1="88.223" y1="239.578" x2="266.445" y2="239.578"/>
		<g>
			<circle cx="88.27" cy="239.578" r="0.94"/>
		</g>
	</g>
	<g>
		<polyline fill="none" stroke="#000000" stroke-width="0.25" stroke-miterlimit="10" points="74.125,699.224 74.399,689.156 
			242.509,689.156 		"/>
		<g>
			<path d="M75.065,699.203c-0.014,0.519-0.446,0.928-0.965,0.914s-0.928-0.446-0.914-0.965s0.446-0.928,0.965-0.914
				C74.67,698.252,75.08,698.684,75.065,699.203z"/>
		</g>
	</g>
	<g>
		<polyline fill="none" stroke="#000000" stroke-width="0.25" stroke-miterlimit="10" points="85.557,236.747 85.557,227.5 
			218.24,227.5 		"/>
		<g>
			<path d="M86.497,236.7c0,0.519-0.421,0.94-0.94,0.94s-0.94-0.421-0.94-0.94s0.421-0.94,0.94-0.94S86.497,236.181,86.497,236.7z"
				/>
		</g>
	</g>
	<g>
		<rect x="14.89" y="142.95" fill="#009FE3" width="14.173" height="14.172"/>
	</g>
	<g>
		<rect x="14.89" y="171.295" fill="#2EA736" width="14.173" height="14.172"/>
	</g>
	<g>
		<rect x="101.459" y="142.95" fill="#E6007E" width="14.172" height="14.172"/>
	</g>
	<g>
		<rect x="101.459" y="171.295" fill="#F39200" width="14.172" height="14.172"/>
	</g>
	<g>
		<rect x="186.295" y="171.295" fill="#951B81" width="14.172" height="14.172"/>
	</g>
	<g>
		<rect x="186.295" y="142.95" fill="#F8D000" width="14.172" height="14.172"/>
	</g>
</g>
<style>
#g-mygraph-phone-img rect, #g-mygraph-phone-img circle, #g-mygraph-phone-img path, #g-mygraph-phone-img line, #g-mygraph-phone-img polyline { vector-effect: non-scaling-stroke; }
</style>
</svg>

