<?xml version="1.0" encoding="utf-8"?>
<!-- Generator: Adobe Illustrator 23.0.0, SVG Export Plug-In . SVG Version: 6.00 Build 0)  -->
<svg version="1.2" baseProfile="tiny" id="g-mygraph-Tablet-img"
	 xmlns="http://www.w3.org/2000/svg" xmlns:xlink="http://www.w3.org/1999/xlink" x="0px" y="0px" viewBox="0 0 768 525"
	 xml:space="preserve">
<g>
	<path fill="#E6007E" stroke="#FFFFFF" d="M405.435,323.276l-35.649,25.037c2.251,3.205,4.619,6.306,7.095,9.302l34.172-27.053
		C409.085,328.224,407.206,325.798,405.435,323.276z"/>
	<path fill="#E6007E" stroke="#FFFFFF" d="M478.589,367.206c-26.438-3.27-50.524-16.436-67.536-36.644l-34.172,27.053
		c8.271,10.003,17.76,18.809,28.184,26.252l25.173-35.554l-25.173,35.554c19.951,14.246,43.33,23.498,68.176,26.572L478.589,367.206
		z"/>
	<path fill="#2EA736" stroke="#FFFFFF" d="M455.946,118.428l10.365,42.298L455.946,118.428c-5.13,1.263-10.201,2.783-15.181,4.59
		l14.86,40.95c10.098-3.664,20.698-5.76,31.431-6.214l-1.841-43.524C475.33,114.649,465.528,116.069,455.946,118.428z"/>
	<path fill="#009FE3" stroke="#FFFFFF" d="M582.162,209.53l37.727-21.748c-25.628-43.864-72.267-72.076-123.951-73.618l-1.3,43.544
		c41.208,1.23,77.897,26.423,93.845,64.439l40.171-16.852c-2.551-6.082-5.497-11.918-8.765-17.513L582.162,209.53z"/>
	<path fill-rule="evenodd" fill="#009FE3" stroke="#FFFFFF" d="M491.5,114.098c1.479,0,2.958,0.022,4.437,0.066l-1.3,43.544
		c-1.046-0.031-2.091-0.047-3.138-0.047V114.098z"/>
	<path fill-rule="evenodd" fill="#F8D000" stroke="#FFFFFF" d="M628.654,205.295c12.263,29.232,14.865,61.618,7.428,92.433
		l-42.347-10.221c5.259-21.79,3.419-44.69-5.252-65.36L628.654,205.295z"/>
	<path fill-rule="evenodd" fill="#F8D000" stroke="#FFFFFF" d="M636.082,297.727c-0.926,3.835-2.003,7.632-3.231,11.381
		l-41.401-13.554c0.868-2.651,1.63-5.336,2.285-8.048L636.082,297.727z"/>
	<path fill-rule="evenodd" fill="#009FE3" stroke="#FFFFFF" d="M632.851,309.109c-22.131,67.596-89.022,110.063-159.61,101.331
		l5.348-43.233c49.913,6.174,97.213-23.854,112.861-71.652L632.851,309.109z"/>
	<path fill-rule="evenodd" fill="#009FE3" stroke="#FFFFFF" d="M369.786,348.313c-29.618-42.172-35.296-96.669-15.006-144.04
		l40.045,17.151c-14.347,33.496-10.332,72.032,10.611,101.852L369.786,348.313z"/>
	<path fill-rule="evenodd" fill="#F8D000" stroke="#FFFFFF" d="M354.779,204.273c2.476-5.781,5.316-11.399,8.503-16.821
		l37.554,22.078c-2.254,3.834-4.262,7.806-6.013,11.894L354.779,204.273z"/>
	<path fill-rule="evenodd" fill="#F8D000" stroke="#FFFFFF" d="M363.283,187.453c5.503-9.361,12.015-18.091,19.419-26.034
		l31.866,29.703c-5.235,5.617-9.84,11.79-13.731,18.409L363.283,187.453z"/>
	<path fill-rule="evenodd" fill="#F8D000" stroke="#FFFFFF" d="M382.702,161.418c2.101-2.255,4.272-4.443,6.51-6.563l29.96,31.625
		c-1.582,1.499-3.117,3.046-4.603,4.641L382.702,161.418z"/>
	<path fill-rule="evenodd" fill="#951B81" stroke="#FFFFFF" d="M389.212,154.856c14.818-14.038,32.367-24.875,51.554-31.837
		l14.86,40.95c-13.567,4.923-25.976,12.586-36.454,22.512L389.212,154.856z"/>
	<path fill-rule="evenodd" fill="#F39200" stroke="#FFFFFF" d="M485.215,114.231c2.094-0.089,4.189-0.133,6.285-0.133v43.563
		c-1.482,0-2.964,0.031-4.444,0.094L485.215,114.231z"/>
	<path fill-rule="evenodd" fill="#009FE3" stroke="#FFFFFF" d="M491.5,80.671c1.812,0,3.623,0.027,5.434,0.081l-0.997,33.412
		c-1.479-0.044-2.958-0.066-4.437-0.066V80.671z"/>
	<path fill-rule="evenodd" fill="#009FE3" stroke="#FFFFFF" d="M648.762,170.902c-31.689-54.21-89.063-88.277-151.828-90.151
		l-0.997,33.412c51.247,1.53,98.093,29.345,123.967,73.608c3.298,5.642,6.221,11.496,8.75,17.523l30.824-12.931
		C656.382,184.982,652.802,177.813,648.762,170.902z"/>
	<path fill-rule="evenodd" fill="#F8D000" stroke="#FFFFFF" d="M659.478,192.364c15.019,35.802,18.206,75.466,9.097,113.207
		l-32.494-7.843c7.438-30.815,4.835-63.201-7.428-92.433L659.478,192.364z"/>
	<path fill-rule="evenodd" fill="#F8D000" stroke="#FFFFFF" d="M668.576,305.57c-1.134,4.697-2.454,9.347-3.957,13.939
		l-31.768-10.401c1.227-3.749,2.305-7.546,3.231-11.381L668.576,305.57z"/>
	<path fill-rule="evenodd" fill="#009FE3" stroke="#FFFFFF" d="M632.851,309.109c-21.914,66.935-87.773,109.323-157.774,101.546
		c-0.613-0.068-1.225-0.14-1.836-0.216l-4.104,33.174c0.749,0.093,1.499,0.181,2.249,0.264
		c85.733,9.525,166.393-42.389,193.233-124.368L632.851,309.109z"/>
	<path fill-rule="evenodd" fill="#E6007E" stroke="#FFFFFF" d="M405.037,383.851c-10.547-7.535-20.063-16.417-28.307-26.419
		c-2.431-2.949-4.747-5.991-6.944-9.119l-27.355,19.212c2.69,3.831,5.527,7.556,8.504,11.168
		c10.097,12.25,21.752,23.128,34.669,32.356c24.696,17.644,53.41,28.838,83.532,32.564l4.104-33.174
		C448.646,407.397,425.201,398.257,405.037,383.851z"/>
	<path fill-rule="evenodd" fill="#009FE3" stroke="#FFFFFF" d="M342.431,367.525c-36.274-51.649-43.228-118.395-18.379-176.413
		l30.727,13.161c-20.289,47.371-14.611,101.869,15.006,144.04L342.431,367.525z"/>
	<path fill-rule="evenodd" fill="#F8D000" stroke="#FFFFFF" d="M324.052,191.113c3.033-7.08,6.511-13.961,10.415-20.601
		l28.816,16.941c-3.187,5.421-6.027,11.04-8.503,16.821L324.052,191.113z"/>
	<path fill-rule="evenodd" fill="#F8D000" stroke="#FFFFFF" d="M334.467,170.512c6.74-11.465,14.715-22.157,23.783-31.885
		l24.452,22.792c-7.404,7.943-13.916,16.673-19.419,26.034L334.467,170.512z"/>
	<path fill-rule="evenodd" fill="#F8D000" stroke="#FFFFFF" d="M358.25,138.627c2.574-2.761,5.233-5.442,7.973-8.038l22.989,24.267
		c-2.237,2.12-4.408,4.308-6.51,6.563L358.25,138.627z"/>
	<path fill-rule="evenodd" fill="#951B81" stroke="#FFFFFF" d="M366.223,130.589c18.148-17.192,39.641-30.465,63.14-38.993
		l11.402,31.422c-19.187,6.963-36.736,17.8-51.554,31.837L366.223,130.589z"/>
	<path fill-rule="evenodd" fill="#2EA736" stroke="#FFFFFF" d="M483.802,80.833c-12.077,0.511-24.074,2.222-35.812,5.11
		c-6.306,1.551-12.524,3.438-18.628,5.653l11.402,31.422c4.984-1.809,10.061-3.349,15.209-4.616
		c9.584-2.357,19.379-3.755,29.24-4.172L483.802,80.833z"/>
	<path fill-rule="evenodd" fill="#F39200" stroke="#FFFFFF" d="M483.803,80.833c2.564-0.108,5.131-0.163,7.697-0.163v33.427
		c-2.096,0-4.191,0.044-6.285,0.133L483.803,80.833z"/>
	
		<line fill="none" stroke="#000000" stroke-width="0.75" stroke-miterlimit="10" x1="30.329" y1="117.724" x2="191.097" y2="117.724"/>
	
		<line fill="none" stroke="#000000" stroke-width="0.75" stroke-miterlimit="10" x1="30.329" y1="25.629" x2="191.097" y2="25.629"/>
	<g>
		<rect x="31.438" y="324.92" fill="#009FE3" width="14.173" height="14.172"/>
		<rect x="31.438" y="353.265" fill="#E6007E" width="14.173" height="14.172"/>
		<rect x="31.438" y="381.611" fill="#F8D000" width="14.172" height="14.172"/>
		<rect x="31.438" y="409.956" fill="#2EA736" width="14.172" height="14.172"/>
		<rect x="31.438" y="466.648" fill="#951B81" width="14.172" height="14.172"/>
		<rect x="31.438" y="438.302" fill="#F39200" width="14.172" height="14.172"/>
	</g>
	
		<line fill="none" stroke="#000000" stroke-width="0.75" stroke-miterlimit="10" x1="31.438" y1="499.26" x2="191.951" y2="499.26"/>
	
		<line fill="none" stroke="#000000" stroke-width="0.75" stroke-miterlimit="10" x1="31.438" y1="283.65" x2="191.951" y2="283.65"/>
	
		<line fill="none" stroke="#000000" stroke-width="0.75" stroke-miterlimit="10" x1="31.438" y1="226.091" x2="191.951" y2="226.091"/>
	<g>
		<polyline fill="none" stroke="#000000" stroke-width="0.25" stroke-miterlimit="10" points="578.417,398.79 606,451 646,451 		"/>
		<g>
			<path d="M577.608,399.27c-0.242-0.459-0.067-1.028,0.392-1.27s1.028-0.067,1.27,0.392c0.242,0.459,0.067,1.028-0.392,1.27
				C578.419,399.905,577.85,399.729,577.608,399.27z"/>
		</g>
	</g>
	<g>
		<polyline fill="none" stroke="#000000" stroke-width="0.25" stroke-miterlimit="10" points="402.967,399.216 360.437,456.35 
			332.696,456.35 		"/>
		<g>
			<path d="M402.185,398.693c0.31-0.416,0.899-0.503,1.315-0.193s0.503,0.899,0.193,1.315c-0.31,0.416-0.899,0.503-1.315,0.193
				C401.961,399.698,401.875,399.109,402.185,398.693z"/>
		</g>
	</g>
	<g>
		<line fill="none" stroke="#000000" stroke-width="0.25" stroke-miterlimit="10" x1="323.607" y1="279.5" x2="229.44" y2="279.5"/>
		<g>
			<circle cx="323.56" cy="279.5" r="0.94"/>
		</g>
	</g>
	<g>
		<polyline fill="none" stroke="#000000" stroke-width="0.25" stroke-miterlimit="10" points="345.665,188.185 293.5,168.5 
			247.715,168.5 		"/>
		<g>
			<path d="M345.952,187.289c0.486,0.183,0.731,0.726,0.548,1.211s-0.726,0.731-1.211,0.548c-0.486-0.183-0.731-0.726-0.547-1.211
				C344.924,187.351,345.467,187.105,345.952,187.289z"/>
		</g>
	</g>
	<g>
		<polyline fill="none" stroke="#000000" stroke-width="0.25" stroke-miterlimit="10" points="358.71,161.083 287.5,123.5 
			233.5,123.5 		"/>
		<g>
			<path d="M359.107,160.23c0.459,0.242,0.635,0.811,0.393,1.27s-0.811,0.635-1.27,0.393c-0.459-0.242-0.635-0.811-0.393-1.27
				C358.08,160.164,358.648,159.988,359.107,160.23z"/>
		</g>
	</g>
	<g>
		<polyline fill="none" stroke="#000000" stroke-width="0.25" stroke-miterlimit="10" points="368.822,138.919 313.5,91.5 
			248.7,91.5 		"/>
		<g>
			<path d="M369.398,138.175c0.394,0.338,0.44,0.931,0.102,1.325s-0.931,0.44-1.325,0.102c-0.394-0.338-0.44-0.931-0.102-1.325
				C368.411,137.883,369.004,137.837,369.398,138.175z"/>
		</g>
	</g>
	<g>
		<polyline fill="none" stroke="#000000" stroke-width="0.25" stroke-miterlimit="10" points="403.063,122.721 366.5,57.5 
			307.975,57.5 		"/>
		<g>
			<path d="M403.86,122.22c0.254,0.453,0.093,1.026-0.36,1.28s-1.026,0.092-1.28-0.36s-0.093-1.026,0.36-1.28
				S403.606,121.768,403.86,122.22z"/>
		</g>
	</g>
	<g>
		<polyline fill="none" stroke="#000000" stroke-width="0.25" stroke-miterlimit="10" points="657.359,309.745 684.5,317.5 
			731.697,317.5 		"/>
		<g>
			<path d="M657.146,310.662c-0.499-0.143-0.788-0.663-0.646-1.162s0.663-0.788,1.162-0.646c0.499,0.143,0.788,0.663,0.646,1.162
				C658.165,310.516,657.645,310.805,657.146,310.662z"/>
		</g>
	</g>
	<g>
		<line fill="none" stroke="#000000" stroke-width="0.25" stroke-miterlimit="10" x1="660.893" y1="252.5" x2="720.12" y2="252.5"/>
		<g>
			<circle cx="660.94" cy="252.5" r="0.94"/>
		</g>
	</g>
	<g>
		<polyline fill="none" stroke="#000000" stroke-width="0.25" stroke-miterlimit="10" points="583.33,130.171 645.5,105.5 
			669.72,105.5 		"/>
		<g>
			<path d="M583.72,131.027c-0.482,0.191-1.029-0.045-1.22-0.527s0.044-1.029,0.527-1.22c0.482-0.191,1.029,0.045,1.22,0.527
				S584.203,130.836,583.72,131.027z"/>
		</g>
	</g>
	<g>
		<polyline fill="none" stroke="#000000" stroke-width="0.25" stroke-miterlimit="10" points="493.539,89.608 494.5,67.5 
			559.74,67.5 		"/>
		<g>
			<path d="M494.48,89.602c-0.022,0.519-0.461,0.921-0.98,0.898s-0.921-0.461-0.898-0.98c0.022-0.519,0.461-0.921,0.98-0.898
				S494.502,89.083,494.48,89.602z"/>
		</g>
	</g>
	<g>
		<polyline fill="none" stroke="#000000" stroke-width="0.25" stroke-miterlimit="10" points="461.299,96.63 455.5,71.5 
			381.68,71.5 		"/>
		<g>
			<path d="M462.204,96.373c0.117,0.506-0.199,1.011-0.704,1.127s-1.01-0.199-1.127-0.705c-0.117-0.506,0.199-1.01,0.704-1.127
				C461.583,95.552,462.088,95.867,462.204,96.373z"/>
		</g>
	</g>
	<g>
		<polyline fill="none" stroke="#000000" stroke-width="0.25" stroke-miterlimit="10" points="487.5,89.607 487.5,47.5 434.3,47.5 
					"/>
		<g>
			<circle cx="487.5" cy="89.56" r="0.94"/>
		</g>
	</g>
</g>
<style>
#g-mygraph-Tablet-img rect, #g-mygraph-Tablet-img circle, #g-mygraph-Tablet-img path, #g-mygraph-Tablet-img line, #g-mygraph-Tablet-img polyline { vector-effect: non-scaling-stroke; }
</style>
</svg>

