<?xml version="1.0" encoding="utf-8"?>
<!-- Generator: Adobe Illustrator 23.0.0, SVG Export Plug-In . SVG Version: 6.00 Build 0)  -->
<svg version="1.2" baseProfile="tiny" id="g-mygraph-Desktop-img"
	 xmlns="http://www.w3.org/2000/svg" xmlns:xlink="http://www.w3.org/1999/xlink" x="0px" y="0px" viewBox="0 0 1200 940"
	 xml:space="preserve">
<g>
	<path fill-rule="evenodd" fill="#F8D000" stroke="#FFFFFF" stroke-width="0.5" d="M1139.017,540.094
		c-2.52,10.44-5.454,20.775-8.795,30.982l-70.609-23.117c2.728-8.334,5.124-16.772,7.181-25.296L1139.017,540.094z"/>
	<path fill-rule="evenodd" fill="#F8D000" stroke="#FFFFFF" stroke-width="0.5" d="M1118.797,288.474
		c33.382,79.575,40.467,167.735,20.22,251.62l-72.223-17.432c16.531-68.492,10.747-140.474-16.51-205.447L1118.797,288.474z"/>
	<g>
		<rect x="48.156" y="680.591" fill="#009FE3" width="14.173" height="14.172"/>
		<rect x="48.156" y="708.489" fill="#E6007E" width="14.173" height="14.172"/>
		<rect x="48.156" y="735.948" fill="#F8D000" width="14.172" height="14.172"/>
		<rect x="48.156" y="763.406" fill="#2EA736" width="14.172" height="14.172"/>
		<rect x="48.156" y="818.325" fill="#951B81" width="14.172" height="14.172"/>
		<rect x="48.156" y="790.867" fill="#F39200" width="14.172" height="14.172"/>
	</g>
	<line fill="none" stroke="#000000" stroke-miterlimit="10" x1="47.436" y1="851.26" x2="288" y2="851.26"/>
	<line fill="none" stroke="#000000" stroke-miterlimit="10" x1="47.436" y1="633.729" x2="288" y2="633.729"/>
	<line fill="none" stroke="#000000" stroke-miterlimit="10" x1="47.436" y1="143.894" x2="288" y2="143.894"/>
	<line fill="none" stroke="#000000" stroke-miterlimit="10" x1="47.436" y1="571.602" x2="288" y2="571.602"/>
	<line fill="none" stroke="#000000" stroke-miterlimit="10" x1="47.436" y1="39.806" x2="288" y2="39.806"/>
	<path fill="#E6007E" stroke="#FFFFFF" stroke-width="0.5" d="M554.146,579.448l-79.236,55.649
		c5.003,7.123,10.267,14.017,15.771,20.674l75.952-60.129C562.258,590.447,558.082,585.054,554.146,579.448z"/>
	<path fill="#E6007E" stroke="#FFFFFF" stroke-width="0.5" d="M716.741,677.089c-58.762-7.269-112.297-36.532-150.108-81.446
		l-75.952,60.129c18.384,22.234,39.474,41.806,62.643,58.35l55.951-79.024l-55.951,79.024
		c44.344,31.665,96.307,52.229,151.531,59.06L716.741,677.089z"/>
	<path fill="#2EA736" stroke="#FFFFFF" stroke-width="0.5" d="M666.414,124.141l23.037,94.015L666.414,124.141
		c-11.403,2.808-22.673,6.186-33.742,10.202l33.028,91.018c22.444-8.145,46.004-12.802,69.86-13.811l-4.091-96.739
		C709.497,115.741,687.712,118.898,666.414,124.141z"/>
	<path fill="#009FE3" stroke="#FFFFFF" stroke-width="0.5" d="M946.949,326.63l83.853-48.339
		c-56.962-97.495-160.625-160.199-275.502-163.628l-2.889,96.783c91.591,2.734,173.138,58.729,208.585,143.226l89.287-37.456
		c-5.671-13.518-12.217-26.489-19.482-38.924L946.949,326.63z"/>
	<path fill-rule="evenodd" fill="#009FE3" stroke="#FFFFFF" stroke-width="0.5" d="M745.439,114.516
		c3.288,0,6.576,0.049,9.862,0.147l-2.889,96.783c-2.324-0.069-4.649-0.104-6.974-0.104V114.516z"/>
	<path fill-rule="evenodd" fill="#F8D000" stroke="#FFFFFF" stroke-width="0.5" d="M1050.285,317.216
		c27.256,64.973,33.041,136.955,16.51,205.447l-94.123-22.718c11.689-48.431,7.599-99.33-11.674-145.273L1050.285,317.216z"/>
	<path fill-rule="evenodd" fill="#F8D000" stroke="#FFFFFF" stroke-width="0.5" d="M1066.794,522.662
		c-2.057,8.524-4.453,16.963-7.181,25.296l-92.02-30.127c1.929-5.893,3.623-11.86,5.078-17.887L1066.794,522.662z"/>
	<path fill-rule="evenodd" fill="#009FE3" stroke="#FFFFFF" stroke-width="0.5" d="M1059.613,547.959
		c-49.189,150.242-197.865,244.632-354.759,225.224l11.887-96.093c110.941,13.724,216.071-53.02,250.852-159.257L1059.613,547.959z"
		/>
	<path fill-rule="evenodd" fill="#009FE3" stroke="#FFFFFF" stroke-width="0.5" d="M474.909,635.098
		c-65.83-93.733-78.45-214.863-33.354-320.152l89.005,38.121c-31.888,74.451-22.964,160.103,23.585,226.382L474.909,635.098z"/>
	<path fill-rule="evenodd" fill="#F8D000" stroke="#FFFFFF" stroke-width="0.5" d="M441.555,314.945
		c5.503-12.849,11.816-25.336,18.9-37.386l83.47,49.072c-5.009,8.521-9.473,17.35-13.365,26.436L441.555,314.945z"/>
	<path fill-rule="evenodd" fill="#F8D000" stroke="#FFFFFF" stroke-width="0.5" d="M460.455,277.559
		c12.232-20.806,26.705-40.21,43.162-57.865l70.828,66.02c-11.636,12.484-21.871,26.205-30.52,40.917L460.455,277.559z"/>
	<path fill-rule="evenodd" fill="#F8D000" stroke="#FFFFFF" stroke-width="0.5" d="M503.617,219.694
		c4.671-5.011,9.496-9.876,14.469-14.587l66.59,70.292c-3.516,3.331-6.929,6.771-10.231,10.314L503.617,219.694z"/>
	<path fill-rule="evenodd" fill="#951B81" stroke="#FFFFFF" stroke-width="0.5" d="M518.086,205.107
		c32.935-31.201,71.94-55.288,114.587-70.764l33.028,91.018c-30.156,10.943-57.736,27.975-81.025,50.037L518.086,205.107z"/>
	<path fill-rule="evenodd" fill="#F39200" stroke="#FFFFFF" stroke-width="0.5" d="M731.469,114.811
		c4.654-0.197,9.311-0.295,13.969-0.295v96.826c-3.294,0-6.587,0.07-9.878,0.209L731.469,114.811z"/>
	<path fill-rule="evenodd" fill="#009FE3" stroke="#FFFFFF" stroke-width="0.5" d="M745.439,40.219c4.027,0,8.054,0.06,12.079,0.18
		l-2.216,74.264c-3.286-0.098-6.574-0.147-9.862-0.147V40.219z"/>
	<path fill-rule="evenodd" fill="#009FE3" stroke="#FFFFFF" stroke-width="0.5" d="M1094.979,240.773
		c-70.433-120.49-197.958-196.21-337.462-200.374l-2.216,74.264c113.905,3.4,218.028,65.225,275.537,163.605
		c7.331,12.541,13.828,25.552,19.447,38.948l68.512-28.741C1111.915,272.068,1103.958,256.133,1094.979,240.773z"/>
	<path fill-rule="evenodd" fill="#009FE3" stroke="#FFFFFF" stroke-width="0.5" d="M1059.613,547.959
		c-48.708,148.775-195.089,242.988-350.677,225.703c-1.361-0.151-2.722-0.311-4.082-0.479l-9.121,73.735
		c1.665,0.206,3.331,0.402,4.999,0.587c190.555,21.171,369.835-94.217,429.49-276.428L1059.613,547.959z"/>
	<path fill-rule="evenodd" fill="#E6007E" stroke="#FFFFFF" stroke-width="0.5" d="M553.26,714.085
		c-23.442-16.748-44.593-36.489-62.918-58.72c-5.403-6.555-10.551-13.316-15.434-20.267l-60.8,42.701
		c5.979,8.514,12.285,16.794,18.902,24.822c22.443,27.228,48.348,51.405,77.058,71.917c54.891,39.217,118.712,64.097,185.663,72.379
		l9.121-73.735C650.188,766.42,598.079,746.105,553.26,714.085z"/>
	<path fill-rule="evenodd" fill="#009FE3" stroke="#FFFFFF" stroke-width="0.5" d="M414.109,677.799
		C333.484,563,318.028,414.646,373.259,285.694l68.296,29.251c-45.096,105.289-32.476,226.42,33.354,320.152L414.109,677.799z"/>
	<path fill-rule="evenodd" fill="#F8D000" stroke="#FFFFFF" stroke-width="0.5" d="M373.259,285.694
		c6.74-15.737,14.472-31.031,23.148-45.789l64.049,37.654c-7.084,12.05-13.397,24.537-18.9,37.386L373.259,285.694z"/>
	<path fill-rule="evenodd" fill="#F8D000" stroke="#FFFFFF" stroke-width="0.5" d="M396.407,239.905
		c14.981-25.482,32.707-49.247,52.862-70.87l54.348,50.659c-16.456,17.655-30.93,37.059-43.162,57.865L396.407,239.905z"/>
	<path fill-rule="evenodd" fill="#F8D000" stroke="#FFFFFF" stroke-width="0.5" d="M449.269,169.035
		c5.721-6.137,11.63-12.095,17.721-17.865l51.096,53.937c-4.973,4.711-9.799,9.576-14.469,14.587L449.269,169.035z"/>
	<path fill-rule="evenodd" fill="#951B81" stroke="#FFFFFF" stroke-width="0.5" d="M466.99,151.17
		c40.337-38.213,88.108-67.714,140.339-86.667l25.344,69.841c-42.646,15.475-81.651,39.563-114.587,70.764L466.99,151.17z"/>
	<path fill-rule="evenodd" fill="#2EA736" stroke="#FFFFFF" stroke-width="0.5" d="M728.33,40.581
		c-26.843,1.135-53.507,4.94-79.597,11.357c-14.015,3.447-27.836,7.642-41.403,12.565l25.344,69.841
		c11.078-4.02,22.362-7.444,33.805-10.259c21.302-5.24,43.073-8.346,64.991-9.273L728.33,40.581z"/>
	<path fill-rule="evenodd" fill="#F39200" stroke="#FFFFFF" stroke-width="0.5" d="M728.33,40.581
		c5.7-0.241,11.404-0.362,17.109-0.362v74.297c-4.658,0-9.315,0.098-13.969,0.295L728.33,40.581z"/>
</g>
<style>
#g-mygraph-Desktop-img rect, #g-mygraph-Desktop-img circle, #g-mygraph-Desktop-img path, #g-mygraph-Desktop-img line, #g-mygraph-Desktop-img polyline { vector-effect: non-scaling-stroke; }
</style>
</svg>

